<?xml version="1.0" encoding="utf-8"?>
<!-- Generator: Adobe Illustrator 26.1.0, SVG Export Plug-In . SVG Version: 6.00 Build 0)  -->
<svg version="1.1" id="a" xmlns="http://www.w3.org/2000/svg" xmlns:xlink="http://www.w3.org/1999/xlink" x="0px" y="0px"
	 viewBox="0 0 308.6 406.7" style="enable-background:new 0 0 308.6 406.7;" xml:space="preserve">
<style type="text/css">
	.st0{fill:#F2F2F2;}
	.st1{fill:#FFFFFF;}
</style>
<g>
	<path class="st0" d="M244.4,243.4l-59.4,39.4c20.6-2.2,46.6-6.8,58.4-16.2c4.9-3.9,7.2-8,6.9-12.3
		C249.9,250.3,247.3,246.5,244.4,243.4L244.4,243.4z"/>
	<path class="st0" d="M64.2,243.4c-3,3.1-5.5,6.9-5.9,11c-0.3,4.3,2,8.4,6.9,12.3c11.8,9.4,37.9,14,58.4,16.2L64.2,243.4L64.2,243.4
		z"/>
	<path class="st0" d="M0,205.5l106.1,54.2l-8.4-12.3c6.3,6.4,12,12,16.7,16.2c8.4,7.4,28.7,20.2,39.9,20.2
		c11.2,0,31.5-12.8,39.9-20.2c4.7-4.2,10.5-9.8,16.7-16.2l-8.4,12.3l106.1-54.2l-34-46.1l-0.5-24.2l3.6,13.9l22.1-146l-89.5,60.4h0
		l90-63.6L185,56.2l11.3,4.3L180.8,57h-53.1l-15.4,3.4l11.3-4.3L8.3,0l90,63.6l-0.5,0.1l0.4-0.1L8.8,3.2l22.1,146l3.6-16.2L34,159.4
		L0,205.5L0,205.5z M248.8,114.2l0.5,1.3c7.7,20.6,3.3,40.7-11.4,51.2c-11.7,8.3-31.7,11-53.8-5.5l0,62.7l-4.1-68.3l0,0l0-40.8
		L248.8,114.2L248.8,114.2z M154.3,220h2.1c7.5,0,23,2.2,29.1,6.4c0,0-21,26.6-31.2,26.6s-31.2-26.6-31.2-26.6
		c6.2-4.2,21.7-6.4,29.1-6.4L154.3,220L154.3,220z M128.5,114.8l0,40.8l0,0l-4.1,68.3l0-62.7c-22.1,16.5-42.1,13.8-53.8,5.5
		c-14.6-10.5-19.1-30.5-11.4-51.2l0.5-1.3L128.5,114.8L128.5,114.8z"/>
	<path class="st0" d="M192.4,299.2c0-4.7-3.8-8.5-8.5-8.5s-8.5,3.8-8.5,8.5h-42c0-4.7-3.8-8.5-8.5-8.5s-8.5,3.8-8.5,8.5
		s3.8,8.5,8.5,8.5c-4.7,0-8.5,3.8-8.5,8.5s3.8,8.5,8.5,8.5s8.5-3.8,8.5-8.5h42c0,4.7,3.8,8.5,8.5,8.5s8.5-3.8,8.5-8.5
		c0-4.7-3.8-8.5-8.5-8.5C188.5,307.7,192.4,303.9,192.4,299.2z"/>
	<polygon class="st0" points="149.5,292.3 154.3,294.7 159.1,292.3 154.3,289.9 	"/>
</g>
<g>
	<g>
		<path class="st1" d="M52.1,335.5v29.2c0,2.2-0.2,4-0.5,5.4s-0.9,2.6-1.7,3.7c-1,1.3-2.4,2.4-4,3.1c-1.6,0.7-3.4,1.2-5.4,1.2v-3.8
			h0.5c1.3,0,2.5-0.4,3.7-1.2c1.1-0.8,2-1.9,2.6-3.2c0.2-0.6,0.4-1.3,0.5-2.1c0.1-0.8,0.1-2.1,0.1-3.9v-28.4L52.1,335.5L52.1,335.5z
			"/>
		<path class="st1" d="M71.4,353c1.9,0,3.6,0.3,5.1,1c1.5,0.6,2.9,1.5,4,2.6c1.1,1.1,2,2.4,2.7,4c0.6,1.5,1,3.2,1,5s-0.3,3.4-1,4.9
			c-0.6,1.5-1.5,2.8-2.7,3.9c-1.1,1.1-2.5,2-4.1,2.6c-1.6,0.6-3.3,0.9-5.1,0.9c-1.7,0-3.4-0.3-4.9-1c-1.5-0.7-2.9-1.6-4-2.7
			c-1.1-1.1-2-2.5-2.7-4c-0.7-1.5-1-3.2-1-5c0-1.7,0.4-3.3,1.1-4.9c0.7-1.6,1.7-3,3.1-4.2c1.1-1,2.3-1.8,3.8-2.3
			C68.2,353.2,69.7,353,71.4,353L71.4,353z M71.7,356.5c-1.2,0-2.4,0.2-3.5,0.7c-1.1,0.5-2,1.1-2.8,1.8c-0.8,0.8-1.4,1.7-1.8,2.8
			c-0.5,1.1-0.7,2.2-0.7,3.5c0,1.3,0.2,2.5,0.7,3.6c0.4,1.1,1,2,1.8,2.8c0.7,0.8,1.6,1.4,2.7,1.9c1,0.5,2.2,0.7,3.4,0.7
			c1.2,0,2.4-0.2,3.5-0.6c1.1-0.4,2-1,2.8-1.8c0.8-0.8,1.4-1.7,1.8-2.8c0.4-1.1,0.6-2.2,0.6-3.4c0-1.3-0.2-2.5-0.6-3.6
			c-0.4-1.1-1-2.1-1.8-2.9c-0.8-0.8-1.7-1.4-2.7-1.9C74,356.7,72.9,356.5,71.7,356.5L71.7,356.5z"/>
		<path class="st1" d="M93.5,354v2.2c0.7-0.9,1.5-1.6,2.2-2c0.7-0.4,1.5-0.6,2.3-0.6c1.7,0,3.1,1.1,4.3,3.3l-2.3,3.5
			c-0.8-2.1-1.8-3.2-2.8-3.2c-1.1,0-1.9,0.7-2.6,2.1c-0.7,1.4-1,3.2-1,5.5v11.9h-3.8V354H93.5z"/>
		<path class="st1" d="M108.5,354l6.8,17.8l6.8-17.8h4l-14.5,37l-3.5-1.3l5.2-13.2l-8.7-22.5H108.5L108.5,354z"/>
		<path class="st1" d="M132.1,335.5l11.6,32.2l11.4-32.2h4.3l-15.3,42.6h-0.9l-15.6-42.6H132.1L132.1,335.5z"/>
		<path class="st1" d="M181.5,353.9v22.9h-3.8v-2.2c-1,0.9-2.2,1.7-3.5,2.3c-1.3,0.6-2.7,0.8-4.1,0.8c-1.5,0-2.9-0.3-4.1-0.9
			c-1.3-0.6-2.4-1.4-3.3-2.5c-0.9-1.1-1.7-2.3-2.2-3.7s-0.8-3-0.8-4.7c0-1.8,0.3-3.4,0.8-4.9c0.6-1.5,1.3-2.8,2.3-3.9
			c1-1.1,2.1-2,3.4-2.6c1.3-0.6,2.8-1,4.3-1c1.4,0,2.7,0.3,3.9,0.8s2.3,1.3,3.1,2.2l0.1-2.5L181.5,353.9L181.5,353.9z M170.6,357
			c-2.1,0-3.7,0.8-5,2.4c-1.3,1.6-1.9,3.6-1.9,6.1c0,2.6,0.6,4.8,1.8,6.3c1.2,1.6,2.9,2.4,5,2.4s3.8-0.8,5-2.4
			c1.3-1.6,1.9-3.7,1.9-6.2c0-2.6-0.6-4.6-1.9-6.2C174.3,357.8,172.6,357,170.6,357L170.6,357z"/>
		<path class="st1" d="M191.9,354v2.2c0.7-0.9,1.5-1.6,2.2-2c0.7-0.4,1.5-0.6,2.3-0.6c1.7,0,3.1,1.1,4.3,3.3l-2.3,3.5
			c-0.8-2.1-1.8-3.2-2.8-3.2c-1.1,0-1.9,0.7-2.6,2.1c-0.7,1.4-1,3.2-1,5.5v11.9h-3.8V354H191.9z"/>
		<path class="st1" d="M223.6,376.8h-5.9c-2.4,0-4.4-0.1-5.8-0.4c-1.4-0.3-2.7-0.8-3.8-1.5c-1.6-1-2.8-2.4-3.7-4.1
			c-0.9-1.7-1.3-3.5-1.3-5.6c0-2.3,0.6-4.3,1.7-6.2c1.2-1.9,2.7-3.2,4.7-4.1c0.7-0.3,1.2-0.6,1.7-0.7c0.5-0.2,1.1-0.3,1.7-0.4
			c0.6-0.1,1.4-0.2,2.4-0.2c1,0,2.3-0.1,4-0.1h0.4v-17.9l3.9-1.4L223.6,376.8L223.6,376.8z M216.9,357c-3.1,0-5.5,0.7-7.2,2.2
			c-1.7,1.5-2.6,3.5-2.6,6.2c0,1.7,0.4,3.1,1.1,4.3s1.8,2.2,3.2,2.8c1.4,0.6,3.2,0.9,5.6,0.9h2.7V357L216.9,357L216.9,357z"/>
		<path class="st1" d="M251.1,353.9v22.9h-3.8v-2.2c-1,0.9-2.2,1.7-3.5,2.3c-1.3,0.6-2.7,0.8-4.1,0.8c-1.5,0-2.9-0.3-4.1-0.9
			c-1.3-0.6-2.4-1.4-3.3-2.5c-0.9-1.1-1.7-2.3-2.2-3.7s-0.8-3-0.8-4.7c0-1.8,0.3-3.4,0.8-4.9c0.6-1.5,1.3-2.8,2.3-3.9
			c1-1.1,2.1-2,3.4-2.6c1.3-0.6,2.8-1,4.3-1c1.4,0,2.7,0.3,3.9,0.8s2.3,1.3,3.1,2.2l0.1-2.5L251.1,353.9L251.1,353.9z M240.2,357
			c-2.1,0-3.7,0.8-5,2.4c-1.3,1.6-1.9,3.6-1.9,6.1c0,2.6,0.6,4.8,1.8,6.3c1.2,1.6,2.9,2.4,5,2.4s3.8-0.8,5-2.4
			c1.3-1.6,1.9-3.7,1.9-6.2c0-2.6-0.6-4.6-1.9-6.2C243.9,357.8,242.3,357,240.2,357L240.2,357z"/>
		<path class="st1" d="M268.4,357c-0.6-0.1-1.1-0.2-1.5-0.2c-0.5,0-0.9-0.1-1.4-0.1c-1.3,0-2.4,0.3-3.2,0.9
			c-0.8,0.6-1.2,1.4-1.2,2.4c0,0.6,0.2,1.2,0.6,1.6c0.4,0.5,1.2,1.1,2.4,1.9c1.8,1.2,3.1,2.3,3.8,3.3c0.7,1,1.1,2.2,1.1,3.5
			c0,1-0.2,2-0.7,2.8c-0.5,0.9-1.1,1.6-1.9,2.3c-0.8,0.6-1.8,1.1-2.8,1.5c-1.1,0.4-2.3,0.5-3.6,0.5c-0.7,0-1.4,0-2.1-0.1
			s-1.4-0.2-2.2-0.3l0.6-3.1c0.9,0.1,1.6,0.1,2.2,0.2c0.6,0,1.1,0.1,1.4,0.1c1.6,0,2.8-0.3,3.7-1s1.4-1.6,1.4-2.8
			c0-0.7-0.2-1.3-0.7-1.9c-0.4-0.5-1.3-1.3-2.6-2.2c-1.7-1.2-2.9-2.2-3.5-3c-0.6-0.9-0.9-1.9-0.9-3.2c0-2,0.8-3.7,2.3-4.9
			c1.5-1.3,3.5-1.9,5.8-1.9c1.1,0,2.4,0.1,3.9,0.4L268.4,357L268.4,357z"/>
	</g>
	<g>
		<path class="st1" d="M48.5,394.5c-1.2-0.4-2.4-0.7-3.1-0.7c-1.1,0-1.9,0.8-1.9,1.8c0,0.5,0.2,1,0.7,1.3c0.4,0.3,0.6,0.4,2,1
			c1.4,0.6,2.1,0.9,2.7,1.5c0.7,0.7,1.1,1.7,1.1,2.7c0,2.4-2,4.2-4.6,4.2c-1.4,0-3.1-0.4-4.4-1l0.6-1.9c2.3,0.8,2.8,0.9,3.8,0.9
			c1.4,0,2.4-0.9,2.4-2.1c0-0.7-0.3-1.2-0.9-1.5c-0.2-0.2-0.8-0.4-1.8-0.8c-1.1-0.5-2.1-1.1-2.7-1.5c-0.7-0.6-1.2-1.6-1.2-2.7
			c0-2.2,1.8-3.7,4.4-3.7c1.2,0,2.6,0.3,3.8,0.8L48.5,394.5L48.5,394.5z"/>
		<path class="st1" d="M68.2,399.2c0,2-0.9,3.9-2.3,5.3c-1.3,1.3-3.1,1.9-5,1.9c-4,0-7.1-3.2-7.1-7.3c0-1.8,0.7-3.6,2-5
			c1.3-1.4,3.2-2.2,5.1-2.2C64.9,391.9,68.2,395.2,68.2,399.2L68.2,399.2z M56.1,399.2c0,1.6,0.5,2.9,1.6,3.9c0.9,0.8,2,1.2,3.2,1.2
			c2.7,0,4.8-2.2,4.8-5c0-2.9-2.1-5.1-4.8-5.1C58.2,394.1,56.1,396.3,56.1,399.2L56.1,399.2z"/>
		<path class="st1" d="M78.3,392.3l0.5,2.1h-3.7v4.1h3.6v2h-3.6v5.6h-2.2v-5.6H72v-2h0.8v-6.2H78.3z"/>
		<path class="st1" d="M90.6,392.3v2.1h-2.8v11.7h-2.2v-11.7h-2.9l0.5-2.1H90.6z"/>
		<path class="st1" d="M96.6,392.3l2.1,8.3l2.8-7.6l3,7.6l2-8.3h2.3l-3.7,14.3h-0.5l-3-7.8l-3,7.8H98l-3.8-14.3H96.6L96.6,392.3z"/>
		<path class="st1" d="M117,391.9l5.1,14.2h-2.4l-1.1-3.1h-3.6l-1,3.1h-2.4l1-3.1h-0.7l0.7-2h0.7l3.1-9.1L117,391.9L117,391.9z
			 M115.6,401h2.3l-1.2-3.3L115.6,401L115.6,401z"/>
		<path class="st1" d="M129.5,392.3c1.3,0,2.2,0.2,3,0.6c1.3,0.7,2,2,2,3.5c0,1.9-1.2,3.5-3.2,4.2l3.2,4.4l-1.8,1.2l-4.1-5.5v5.4
			h-2.2v-13.8L129.5,392.3L129.5,392.3z M129.5,398.6c0.7,0,1,0,1.3-0.1c0.8-0.3,1.3-1.1,1.3-2.1c0-1.3-0.8-2-2.2-2h-1.2v4.3H129.5z
			"/>
		<path class="st1" d="M144.8,392.3l0.4,2.1h-3.6v4.1h3.9v2h-3.9v3.5h3.6v2.1h-5.8v-5.5h-0.9v-2h0.9v-6.2H144.8z"/>
		<path class="st1" d="M161.7,392.4c1.2,0,2.1,0.2,3,0.6c2.4,1.1,4,3.7,4,6.4c0,2.9-1.7,5.4-4.3,6.3c-0.9,0.3-1.7,0.5-2.9,0.5h-2.9
			v-13.7L161.7,392.4L161.7,392.4z M161.4,404c0.7,0,1.2-0.1,1.8-0.2c2-0.6,3.3-2.4,3.3-4.5c0-2.2-1.5-4.2-3.6-4.7
			c-0.5-0.1-0.8-0.2-1.6-0.2h-0.3l0,9.6L161.4,404L161.4,404z"/>
		<path class="st1" d="M179.1,392.3l0.4,2.1h-3.6v4.1h3.9v2h-3.9v3.5h3.6v2.1h-5.8v-5.5h-0.9v-2h0.9v-6.2H179.1z"/>
		<path class="st1" d="M185.9,392.3l3,8.7l2.7-8.7h2.5l-4.8,14.3h-0.5l-5.3-14.3H185.9L185.9,392.3z"/>
		<path class="st1" d="M203.7,392.3l0.4,2.1h-3.6v4.1h3.9v2h-3.9v3.5h3.6v2.1h-5.8v-5.5h-0.9v-2h0.9v-6.2H203.7z"/>
		<path class="st1" d="M211.5,392.3v11.7h3.9v2h-6.1v-13.8L211.5,392.3L211.5,392.3z"/>
		<path class="st1" d="M232.9,399.2c0,2-0.9,3.9-2.3,5.3c-1.3,1.3-3.1,1.9-5,1.9c-4,0-7.1-3.2-7.1-7.3c0-1.8,0.7-3.6,2-5
			c1.3-1.4,3.2-2.2,5.1-2.2C229.6,391.9,232.9,395.2,232.9,399.2L232.9,399.2z M220.9,399.2c0,1.6,0.5,2.9,1.6,3.9
			c0.9,0.8,2,1.2,3.2,1.2c2.7,0,4.8-2.2,4.8-5c0-2.9-2.1-5.1-4.8-5.1C223,394.1,220.9,396.3,220.9,399.2L220.9,399.2z"/>
		<path class="st1" d="M240.7,392.3c0.8,0,1.2,0,1.7,0.2c1.7,0.4,2.8,1.9,2.8,3.7c0,1.7-0.9,3.1-2.4,3.7c-0.5,0.2-1.5,0.4-2.5,0.4
			h-0.4v5.8h-2.2v-13.8H240.7z M240.3,398.1c1.6,0,2.5-0.7,2.5-2c0-1.2-0.7-1.8-2.2-1.8h-0.7v3.8H240.3z"/>
		<path class="st1" d="M255.1,392.3l0.4,2.1h-3.6v4.1h3.9v2h-3.9v3.5h3.6v2.1h-5.8v-5.5h-0.9v-2h0.9v-6.2H255.1z"/>
		<path class="st1" d="M263.8,392.3c1.3,0,2.2,0.2,3,0.6c1.3,0.7,2,2,2,3.5c0,1.9-1.2,3.5-3.2,4.2l3.2,4.4l-1.8,1.2l-4.1-5.5v5.4
			h-2.2v-13.8L263.8,392.3L263.8,392.3z M263.8,398.6c0.7,0,1,0,1.3-0.1c0.8-0.3,1.3-1.1,1.3-2.1c0-1.3-0.8-2-2.2-2h-1.2v4.3H263.8z
			"/>
	</g>
	<g>
		<polygon class="st1" points="107.2,381.3 41,381.3 41,386.4 105.2,386.4 		"/>
		<polygon class="st1" points="119.5,381.3 117.5,386.4 269.2,386.4 269.2,381.3 		"/>
	</g>
</g>
</svg>
